<svg xmlns="http://www.w3.org/2000/svg" width="256" height="256"><path fill-opacity=".016" d="M0 128.004v128.004l128.25-.254 128.25-.254.254-127.75L257.008 0H0v128.004m.485.496c0 70.4.119 99.053.265 63.672.146-35.38.146-92.98 0-128C.604 29.153.485 58.1.485 128.5" fill="#1976D2" fill-rule="evenodd"/><path fill-opacity=".123" d="M111.5 1.073C85.061 4.714 59.299 17.118 40.118 35.442-21.917 94.704-9.821 195.431 64.56 238.97c9.579 5.607 24.935 11.419 37.44 14.171 14.66 3.226 36.905 3.222 51.934-.01 42.424-9.123 76.582-37.792 92.732-77.832 3.83-9.495 8.31-27.518 8.325-33.49.005-2.03.459-3.969 1.009-4.309.559-.345 1-5.03 1-10.618 0-6.412-.359-9.778-1-9.382-.586.362-1-.687-1-2.534 0-1.733-.925-7.693-2.056-13.243-8.452-41.472-37.703-76.278-77.645-92.389-18.443-7.44-44.892-10.864-63.799-8.261M69 38c0 .55.675 1 1.5 1s1.5-.45 1.5-1-.675-1-1.5-1-1.5.45-1.5 1m-5.711 19.297c3.945 4.778 8.399 8.348 9.296 7.451.905-.905-8.307-10.442-10.688-11.065-1.68-.439-1.44.185 1.392 3.614m131.69-.326c2.446 3.435 8.719 9.029 10.124 9.029 2.438 0-7.798-11.191-10.614-11.604-1.184-.174-1.081.368.49 2.575m-34.34-1.277c-1.126 1.126-.685 2.306.861 2.306.825 0 1.5-.423 1.5-.941 0-1.261-1.562-2.164-2.361-1.365M121.96 69.862c1.221 4.257.152 7.866-3.155 10.649-5.093 4.285-12.638 2.357-14.865-3.799l-1.195-3.307-3.075 2.547C92.998 81.481 87.737 87 89.141 87c2.396 0 8.188 4.802 10.603 8.79 2.472 4.084 2.999 11.119 1.189 15.895-3.143 8.297-14.889 13.563-23.203 10.403l-2.4-.913.843 5.663c3.049 20.494 16.1 37.022 35.046 44.382 7.473 2.903 23.124 3.576 31.753 1.366 27.746-7.108 45.19-36.016 38.611-63.983-5.625-23.911-25.749-40.251-50.762-41.218l-9.678-.374.817 2.851M230 89c0 .55.675 1 1.5 1s1.5-.45 1.5-1-.675-1-1.5-1-1.5.45-1.5 1m-115 18c-2.496 2.496-2.571 6.173-.171 8.345 3.827 3.464 10.171.86 10.171-4.174 0-2.721-3.354-6.171-6-6.171-1.1 0-2.9.9-4 2M.37 128c0 5.775.165 8.137.367 5.25.202-2.887.202-7.612 0-10.5S.37 122.225.37 128m246.902 0c0 2.475.195 3.488.434 2.25.238-1.238.238-3.263 0-4.5-.239-1.237-.434-.225-.434 2.25M219 144.855c0 1.267 11.019 11.459 11.677 10.801.31-.31-.88-2.387-2.644-4.615-4.343-5.483-9.033-8.695-9.033-6.186M52 146c0 .55.45 1 1 1s1-.45 1-1-.45-1-1-1-1 .45-1 1m175 29c0 .55.45 1 1 1s1-.45 1-1-.45-1-1-1-1 .45-1 1M51.94 188.848c1.636 2.983 9.844 10.391 11.063 9.984 1.559-.519-7.323-10.421-9.97-11.113-1.618-.423-1.826-.208-1.093 1.129M166 214.5c0 .825.45 1.5 1 1.5s1-.675 1-1.5-.45-1.5-1-1.5-1 .675-1 1.5m-71.85.45c.22.66.726 1.166 1.125 1.125 1.196-.124.964-1.495-.325-1.925-.66-.22-1.02.14-.8.8m39.49 8.824c-.674 1.09 8.661 11.226 10.339 11.226 1.717 0-.291-2.98-5.285-7.844-2.453-2.388-4.728-3.911-5.054-3.382" fill="#1976D2" fill-rule="evenodd"/><path fill-opacity=".55" d="M114.845 10.139c-25.35 2.906-49.186 13.99-67.853 31.551C12.906 73.755.868 122.176 15.956 166.534c20.793 61.134 88.101 94.316 149.754 73.828 67.438-22.411 100.025-99.995 68.846-163.914C216.373 39.17 181.032 14.347 140 10.033c-10.831-1.138-14.432-1.123-25.155.106M151 19c0 .55.45 1 1 1s1-.45 1-1-.45-1-1-1-1 .45-1 1m-49.5 4c-.34.55-.141 1 .441 1S103 23.55 103 23s-.198-1-.441-1-.719.45-1.059 1M69 38c0 1.289.506 1.998 1.25 1.75.688-.229 1.25-1.017 1.25-1.75 0-.733-.562-1.521-1.25-1.75-.744-.248-1.25.461-1.25 1.75M58 50.946C58 52.22 70.926 66 72.121 66c2.285 0 .39-3.62-4.405-8.414C62.155 52.024 58 49.185 58 50.946m133.824 2.807c3.284 4.612 13.498 13.78 13.925 12.499.575-1.725-4.438-7.923-9.593-11.859-5.38-4.108-6.968-4.343-4.332-.64m-31.647 2.8c.452 2.172 2.227 2.305 2.633.197.21-1.095-.28-1.75-1.31-1.75-.961 0-1.512.647-1.323 1.553m-46.321.958C86.73 62.914 64.626 84.446 57.917 112c-1.724 7.078-1.724 24.922 0 32 6.535 26.842 27.241 47.548 54.083 54.083 3.025.737 10.225 1.34 16 1.34s12.975-.603 16-1.34c23.774-5.788 42.876-22.66 51.067-45.105 9.403-25.764 4.215-52.996-13.925-73.095-16.916-18.742-42.613-27.286-67.286-22.372M86.5 63c-.34.55-.141 1 .441 1S88 63.55 88 63s-.198-1-.441-1-.719.45-1.059 1m143.654 25.438c.191.917.796 1.644 1.346 1.615 1.484-.079 1.212-2.316-.346-2.835-.841-.28-1.215.177-1 1.22M218.5 102c-.34.55-.141 1 .441 1s1.059-.45 1.059-1-.198-1-.441-1-.719.45-1.059 1m3.5 19c0 .55.45 1 1 1s1-.45 1-1-.45-1-1-1-1 .45-1 1m-17 10c0 .55.477 1 1.059 1s.781-.45.441-1-.816-1-1.059-1-.441.45-.441 1m-171 2.059c0 .582.45.781 1 .441s1-.816 1-1.059-.45-.441-1-.441-1 .477-1 1.059m181.959 8.864c1.624 3.035 12.463 14.077 13.818 14.077 2.618 0 .947-2.694-5.715-9.212-6.919-6.77-10.166-8.719-8.103-4.865m-164.513 3.164c-1.03 1.668 1.287 3.58 2.667 2.2C55.267 146.133 54.545 144 53 144c-.485 0-1.184.489-1.554 1.087M206.5 148c.34.55.816 1 1.059 1s.441-.45.441-1-.477-1-1.059-1-.781.45-.441 1M194 168c0 .55.45 1 1 1s1-.45 1-1-.45-1-1-1-1 .45-1 1m32.446 6.087c-1.03 1.668 1.287 3.58 2.667 2.2 1.154-1.154.432-3.287-1.113-3.287-.485 0-1.184.489-1.554 1.087M26 176c0 .55.477 1 1.059 1s.781-.45.441-1-.816-1-1.059-1-.441.45-.441 1m22.907 9.826C50.399 188.614 61.632 200 62.89 200c3.069 0-1.447-6.282-9.13-12.701-4.423-3.695-6.356-4.282-4.853-1.473M196 187.059c0 .582.45.781 1 .441s1-.816 1-1.059-.45-.441-1-.441-1 .477-1 1.059m-23.5.941c-.34.55-.141 1 .441 1s1.059-.45 1.059-1-.198-1-.441-1-.719.45-1.059 1M80 193.059c0 .582.45.781 1 .441s1-.816 1-1.059-.45-.441-1-.441-1 .477-1 1.059m-16 16c0 .582.45.781 1 .441s1-.816 1-1.059-.45-.441-1-.441-1 .477-1 1.059m86-.059c0 .55.477 1 1.059 1s.781-.45.441-1-.816-1-1.059-1-.441.45-.441 1m-55.878 5.353c-1.216 1.465-.526 2.647 1.545 2.647 1.489 0 1.825-2.578.446-3.43-.487-.301-1.383.051-1.991.783m71.572-.714c-.933.934.194 2.361 1.865 2.361.793 0 1.441-.675 1.441-1.5 0-1.506-2.111-2.056-3.306-.861m30.306 3.42c0 .582.45.781 1 .441s1-.816 1-1.059-.45-.441-1-.441-1 .477-1 1.059m-65.363 4.922c2.175 3.705 12.707 14.019 14.314 14.019 3.21 0-8.16-12.901-14.235-16.152-1.912-1.023-1.913-.99-.079 2.133M113.5 240c-.34.55-.141 1 .441 1s1.059-.45 1.059-1-.198-1-.441-1-.719.45-1.059 1" fill="#1976D2" fill-rule="evenodd"/><path fill-opacity=".182" d="M107.922 11.552c-49.963 9.047-88.33 47.852-96.378 97.475-10.421 64.26 33.317 125.023 97.483 135.429C180.893 256.11 246 200.755 246 128c0-65.712-53.14-118.418-118.881-117.91-6.39.049-15.029.707-19.197 1.462M151 18.441c0 .857.45 1.559 1 1.559s1-.423 1-.941-.45-1.219-1-1.559c-.55-.34-1 .084-1 .941M101 23.5c0 .917.484 1.505 1.075 1.308.591-.197 1.075-.785 1.075-1.308s-.484-1.111-1.075-1.308c-.591-.197-1.075.391-1.075 1.308m23 5c0 .825.45 1.5 1 1.5s1-.675 1-1.5-.45-1.5-1-1.5-1 .675-1 1.5m34 6.559c0 .582.45.781 1 .441s1-.816 1-1.059-.45-.441-1-.441-1 .477-1 1.059m-39.89 1.054c-14.598 1.353-30.324 7.243-43.415 16.261l-6.805 4.688-5.645-5.031c-8.818-7.86-9.843-6.712-2.314 2.593l4.932 6.094-4.527 4.391c-2.489 2.415-6.34 7.038-8.557 10.272C47.454 81.69 40.616 95.59 39.422 100.5c-.402 1.65-1.178 3.293-1.726 3.652-.548.358-1.075 2.046-1.171 3.75l-.35 6.157c-.116 2.029-.564 2.819-1.33 2.346-.68-.421-.884-.277-.496.35.913 1.478-.336 4.371-1.561 3.614-.599-.371-.767.134-.417 1.256.321 1.031-.046 4.57-.817 7.864-1.079 4.609-1.132 6.324-.228 7.442.942 1.166.893 1.284-.246.597-1.113-.671-1.245-.443-.609 1.058.446 1.053.86 2.889.92 4.081.06 1.192.447 2.504.859 2.917 1.109 1.109.911 2.633-.25 1.916-1.582-.978-1.162 1.12.5 2.5 2.044 1.696 1.894 3.081-.25 2.299-1.638-.597-1.635-.507.044 1.409.987 1.126 2.027 3.33 2.311 4.898.284 1.568.839 3.086 1.233 3.373.394.286.683 1.759.643 3.271-.041 1.512.251 2.75.649 2.75.597 0 5.299 9.264 5.975 11.771.108.401.872 1.223 1.699 1.827.826.604 1.213 1.566.86 2.137-.353.571.141 1.652 1.097 2.402 1.61 1.262 1.628 1.215.239-.637-1.4-1.867-1.38-1.906.296-.59.987.776 1.583 1.962 1.325 2.635-.259.674.958 2.515 2.704 4.09L54.5 194.5l-3-3.496c-1.65-1.923.161-.573 4.025 3 3.864 3.573 6.897 6.688 6.74 6.923-.157.235-1.744-.89-3.525-2.5L55.5 195.5l2.943 3.256c2.002 2.216 3.522 3.072 4.755 2.681 1.136-.36 2.042.024 2.428 1.031.579 1.508 5.579 4.699 7.002 4.467.356-.058.924.289 1.26.772.667.956 13.701 7.293 15.002 7.293.44 0 1.587.87 2.549 1.933 1.006 1.111 2.416 1.676 3.319 1.33 1.094-.42 1.332-.218.785.667-.606.98-.343 1.033 1.152.233 1.257-.672 3.315-.716 5.87-.123 5.834 1.353 14.176 1.189 14.773-.29.373-.925.525-.937.583-.045.043.662 1.767 1.485 3.829 1.828 2.063.342 4.425.886 5.25 1.209.825.322 1.77.624 2.1.672.331.047 3.535 3.124 7.122 6.836 5.795 5.998 9.778 8.396 9.778 5.888 0-1.269-5.077-7.439-10.161-12.348-2.443-2.359-3.818-3.785-3.055-3.168 1.493 1.206 13.395-.996 22.172-4.102 2.45-.867 5.488-1.662 6.75-1.766 1.262-.105 2.294-.474 2.294-.82 0-.347 1.912-1.475 4.25-2.507s5.884-3.013 7.882-4.402c1.997-1.389 4.649-3.2 5.893-4.025 3.84-2.548 7.489-6.194 7.2-7.195-.151-.524.132-.702.629-.395.498.307 2.086-.623 3.53-2.067 2.081-2.081 2.384-2.918 1.457-4.035-.904-1.089-.848-1.682.245-2.615.778-.664 1.076-.777.664-.25-1.186 1.513-.879 2.557.75 2.557.825 0 1.5-.75 1.5-1.667 0-.916.286-1.381.635-1.032.795.796 6.365-6.108 6.365-7.889 0-.722.618-1.672 1.373-2.112 1.978-1.152 6.07-9.685 9.232-19.252 2.349-7.106 2.551-8.576 1.431-10.411-.718-1.175 1.862.9 5.733 4.613 3.87 3.713 7.53 6.75 8.134 6.75 2.491 0 .75-3.221-4.962-9.179l-6.059-6.321-.279-15c-.328-17.587-2.14-25.668-8.809-39.279-2.351-4.797-4.298-8.946-4.327-9.221-.079-.73-5.048-6.429-12.467-14.3-18.997-20.152-46.856-30.279-75.89-27.587M192 36c0 .55.702 1 1.559 1s1.281-.45.941-1c-.34-.55-1.041-1-1.559-1s-.941.45-.941 1M68.48 37.032c-.388.628-.235 1.613.34 2.188 1.344 1.344 4.477.172 3.93-1.471-.556-1.671-3.386-2.147-4.27-.717M174 45.5c0 .825.45 1.5 1 1.5s1-.675 1-1.5-.45-1.5-1-1.5-1 .675-1 1.5m14 3.448c0 1.329 9.093 12.111 12.952 15.358 3.35 2.819 6.048 3.505 6.048 1.538C207 64.413 190.482 48 189.043 48c-.574 0-1.043.427-1.043.948M51 71c0 .55.45 1 1 1s1-.45 1-1-.45-1-1-1-1 .45-1 1m-7 9c0 .55.45 1 1 1s1-.45 1-1-.45-1-1-1-1 .45-1 1m185.48 8.032c-.388.628-.235 1.613.34 2.188 1.344 1.344 4.477.172 3.93-1.471-.556-1.671-3.386-2.147-4.27-.717M22 98.5c0 .825.675 1.5 1.5 1.5s1.5-.675 1.5-1.5-.675-1.5-1.5-1.5-1.5.675-1.5 1.5m196 3.5c0 .55.45 1 1 1s1-.45 1-1-.45-1-1-1-1 .45-1 1m18 11c0 .55.45 1 1 1s1-.45 1-1-.45-1-1-1-1 .45-1 1m-14 8c0 .55.45 1 1 1s1-.45 1-1-.45-1-1-1-1 .45-1 1M32.257 133c.225.825 1.271 1.605 2.326 1.732 1.347.164 1.471.045.417-.4-.825-.347-1.872-1.127-2.326-1.732-.531-.707-.68-.565-.417.4M15 138c0 .55.45 1 1 1s1-.45 1-1-.45-1-1-1-1 .45-1 1m223 10.5c0 .825.45 1.5 1 1.5s1-.675 1-1.5-.45-1.5-1-1.5-1 .675-1 1.5M32 160.393c0 .766.624 1.632 1.387 1.925.973.374 1.236-.042.883-1.393-.579-2.214-2.27-2.61-2.27-.532m161 7.509c0 1.038 1.902 2.541 2.466 1.948.183-.192-.297-.93-1.067-1.639-.769-.71-1.399-.849-1.399-.309M226 175c0 1.506.522 2.046 1.75 1.81.963-.186 1.75-1 1.75-1.81s-.787-1.624-1.75-1.81c-1.228-.236-1.75.304-1.75 1.81m-200.771 1.188c.618 1.854 2.771 2.161 2.771.395 0-.87-.712-1.583-1.583-1.583s-1.406.534-1.188 1.188M206 177.5c0 .825.45 1.5 1 1.5s1-.675 1-1.5-.45-1.5-1-1.5-1 .675-1 1.5m-159 2.878c0 .207.788.995 1.75 1.75 1.586 1.243 1.621 1.208.378-.378-1.307-1.666-2.128-2.195-2.128-1.372M58 190.5c2.987 3.025 5.657 5.5 5.932 5.5.275 0-1.945-2.475-4.932-5.5s-5.657-5.5-5.932-5.5c-.275 0 1.945 2.475 4.932 5.5m-21.5-.5c.34.55.816 1 1.059 1s.441-.45.441-1-.477-1-1.059-1-.781.45-.441 1m178.5 6c0 .55.477 1 1.059 1s.781-.45.441-1-.816-1-1.059-1-.441.45-.441 1M63.694 207.639c-.799.799.104 2.361 1.365 2.361.518 0 .941-.675.941-1.5 0-1.546-1.18-1.987-2.306-.861M179 208.5c0 .825.45 1.5 1 1.5s1-.675 1-1.5-.45-1.5-1-1.5-1 .675-1 1.5m-27.789 2.101c-.71.769-.849 1.399-.309 1.399 1.038 0 2.541-1.902 1.948-2.466-.192-.183-.93.297-1.639 1.067M93.2 213.2c-1.456 1.456-1.555 3.463-.211 4.293.585.361.722-.082.337-1.086-.409-1.067.037-2.199 1.203-3.052 1.019-.745 1.407-1.355.862-1.355s-1.531.54-2.191 1.2m72.136.367c-.834 2.172 1.282 4.215 2.797 2.7 1.28-1.28.487-4.267-1.133-4.267-.585 0-1.333.705-1.664 1.567M97 216.5c-.718.865-.815 1.5-.229 1.5.558 0 1.274-.675 1.591-1.5.316-.825.419-1.5.229-1.5-.19 0-.906.675-1.591 1.5m98.694-.861c-.799.799.104 2.361 1.365 2.361.518 0 .941-.675.941-1.5 0-1.546-1.18-1.987-2.306-.861m-68.13 4.654c.376.986.935 1.541 1.243 1.233.308-.307.001-1.114-.683-1.793-.988-.98-1.102-.865-.56.56M65 221c0 .55.45 1 1 1s1-.45 1-1-.45-1-1-1-1 .45-1 1m52.733.124c.679.684 1.486.991 1.793.683.308-.308-.247-.867-1.233-1.243-1.425-.542-1.54-.428-.56.56M113 240.5c0 .917.484 1.505 1.075 1.308.591-.197 1.075-.786 1.075-1.308s-.484-1.111-1.075-1.308c-.591-.197-1.075.391-1.075 1.308" fill="#1976D2" fill-rule="evenodd"/></svg>